<svg width="186" height="186" viewBox="0 0 186 186" fill="none" xmlns="http://www.w3.org/2000/svg">
<g clip-path="url(#clip0_51_667)">
<path d="M80.0163 8.09217C85.9225 -2.20585 100.688 -2.20586 106.594 8.09217L183.422 142.052C187.872 149.812 184.852 159.743 176.849 163.665L133.436 184.938C125.786 171.458 103.327 153.407 92.9447 153.407C82.5687 153.407 60.6156 171.437 53.1262 184.915L9.76116 163.665C1.75831 159.743 -1.26188 149.812 3.18845 142.052L80.0163 8.09217ZM98.8862 51.7904C96.4056 47.4651 90.2042 47.4651 87.7236 51.7904L39.6613 135.594C37.1807 139.919 40.2812 145.325 45.2424 145.325H141.367C146.329 145.325 149.429 139.919 146.948 135.594L98.8862 51.7904Z" fill="url(#paint0_linear_51_667)"/>
</g>
<defs>
<linearGradient id="paint0_linear_51_667" x1="93.305" y1="0.368652" x2="93.305" y2="184.938" gradientUnits="userSpaceOnUse">
<stop stop-color="#3A526A"/>
<stop offset="0.51" stop-color="white"/>
</linearGradient>
<clipPath id="clip0_51_667">
<rect width="184.749" height="184.749" fill="white" transform="translate(0.930664 0.279053)"/>
</clipPath>
</defs>
</svg>
